<?xml version="1.0" encoding="UTF-8"?>
<svg version="1.1" xmlns="http://www.w3.org/2000/svg" width="844" height="207">
<path d="M0 0 C278.52 0 557.04 0 844 0 C844 68.31 844 136.62 844 207 C565.48 207 286.96 207 0 207 C0 138.69 0 70.38 0 0 Z " fill="#080928" transform="translate(0,0)"/>
<path d="M0 0 C2.45703125 2.5625 2.45703125 2.5625 3.06640625 5.6796875 C2.45703125 8.5625 2.45703125 8.5625 0.97265625 10.2578125 C0.225 10.72960937 -0.52265625 11.20140625 -1.29296875 11.6875 C-2.65615234 12.56148437 -2.65615234 12.56148437 -4.046875 13.453125 C-5.21073055 14.15874504 -6.37628224 14.86157065 -7.54296875 15.5625 C-8.26726074 16.00400391 -8.99155273 16.44550781 -9.73779297 16.90039062 C-13.97872282 19.48385615 -18.23858597 22.02913746 -22.5234375 24.5390625 C-25.60476618 26.35829287 -28.56838149 28.24101683 -31.46875 30.3359375 C-39.57501504 36.05092549 -45.35104094 37.16920454 -55.25708008 36.6862793 C-65.79187879 36.22002989 -74.49373413 39.72040118 -82.5390625 46.55078125 C-90.26002558 54.30184555 -93.4729546 61.70373308 -93.79296875 72.5 C-93.42527239 85.04038117 -89.41431035 94.27184216 -80.16796875 103 C-71.06775493 110.57833506 -61.16990938 112.4636987 -49.54296875 111.5625 C-47.1160854 110.90393045 -44.8831298 110.12037329 -42.578125 109.12109375 C-39.80094958 108.35883639 -38.29428674 108.68579515 -35.54296875 109.5625 C-33.2552203 110.87866145 -31.09862501 112.21525583 -28.91796875 113.6875 C-27.66554213 114.51329017 -26.41293612 115.33880833 -25.16015625 116.1640625 C-24.54495117 116.57301758 -23.92974609 116.98197266 -23.29589844 117.40332031 C-20.89849846 118.98867617 -18.47248672 120.52692929 -16.04296875 122.0625 C-11.76535146 124.78116343 -7.49538632 127.51147398 -3.23046875 130.25 C-2.65554687 130.61867187 -2.080625 130.98734375 -1.48828125 131.3671875 C2.18593102 133.72857219 5.82906454 136.13104879 9.45703125 138.5625 C8.80067966 144.07014594 6.4110437 146.00016859 2.29296875 149.44921875 C-19.56047695 165.73394895 -46.5186846 171.64849589 -73.33496094 167.73803711 C-91.12664345 164.7275419 -107.07671428 156.49462422 -120.54296875 144.5625 C-121.14238281 144.03398437 -121.74179688 143.50546875 -122.359375 142.9609375 C-140.76798573 125.62011162 -151.25732416 102.54507903 -152.02832031 77.30175781 C-152.17189391 51.06607564 -142.11968358 27.77372447 -124.16796875 8.8125 C-90.37670552 -22.94502979 -37.83543318 -27.69363481 0 0 Z " fill="#404AD7" transform="translate(159.54296875,26.4375)"/>
<path d="M0 0 C7.26 0 14.52 0 22 0 C27.24201529 9.3191383 32.3863015 18.61215607 37.08642578 28.21411133 C39.92391293 33.96337672 43.07921606 39.49086228 46.3359375 45.01171875 C47.7971984 47.63581403 48.96607966 50.18543909 50 53 C52.46210724 50.76398649 53.89615486 48.58687991 55.390625 45.625 C56.07366699 44.28900757 56.07366699 44.28900757 56.77050781 42.92602539 C57.25874023 41.96043701 57.74697266 40.99484863 58.25 40 C63.07782219 30.58696357 68.0932933 21.29782187 73.25 12.0625 C73.58777466 11.45720459 73.92554932 10.85190918 74.27355957 10.22827148 C76.17828573 6.81653732 78.08843474 3.40791348 80 0 C86.93 0 93.86 0 101 0 C101 32.34 101 64.68 101 98 C94.4 98 87.8 98 81 98 C80.67 77.54 80.34 57.08 80 36 C76.535 42.496875 76.535 42.496875 73 49.125 C58.20037836 76.79962164 58.20037836 76.79962164 56 79 C53.98035801 79.07244053 51.95832876 79.08377188 49.9375 79.0625 C48.83277344 79.05347656 47.72804688 79.04445313 46.58984375 79.03515625 C45.73519531 79.02355469 44.88054688 79.01195312 44 79 C38.17658221 68.74087248 32.59429227 58.40941291 27.40087891 47.81542969 C27.01335449 47.0268457 26.62583008 46.23826172 26.2265625 45.42578125 C25.89221191 44.73911377 25.55786133 44.05244629 25.21337891 43.3449707 C23.57414966 40.17700352 21.76969974 37.09697455 20 34 C19.67 54.79 19.34 75.58 19 97 C12.73 97 6.46 97 0 97 C0 64.99 0 32.98 0 0 Z " fill="#F6F6F8" transform="translate(560,53)"/>
<path d="M0 0 C2.45703125 2.5625 2.45703125 2.5625 3.06640625 5.6796875 C2.45703125 8.5625 2.45703125 8.5625 0.97265625 10.2578125 C0.225 10.72960937 -0.52265625 11.20140625 -1.29296875 11.6875 C-2.65615234 12.56148437 -2.65615234 12.56148437 -4.046875 13.453125 C-5.21073055 14.15874504 -6.37628224 14.86157065 -7.54296875 15.5625 C-8.26726074 16.00400391 -8.99155273 16.44550781 -9.73779297 16.90039062 C-13.96623639 19.47624974 -18.21165471 22.02014776 -22.4765625 24.53515625 C-25.65956858 26.41806971 -28.79391175 28.34955819 -31.890625 30.37109375 C-32.88606323 31.00845459 -32.88606323 31.00845459 -33.90161133 31.65869141 C-35.11967179 32.44201104 -36.32762163 33.24139913 -37.5222168 34.06005859 C-41.48988456 36.57534423 -44.20907137 36.89346097 -48.67285156 36.06225586 C-52.1185871 35.14144377 -55.09760377 33.54846972 -58.24609375 31.9140625 C-67.33755401 28.18699467 -76.21619925 27.05371182 -85.98046875 27.1875 C-87.07794434 27.19982666 -88.17541992 27.21215332 -89.30615234 27.22485352 C-107.37687581 27.59925808 -121.12145903 33.57567556 -134.25390625 46.02734375 C-139.49619053 51.83321832 -144.24122823 58.46031858 -147.54296875 65.5625 C-148.20296875 65.5625 -148.86296875 65.5625 -149.54296875 65.5625 C-148.33783593 42.4987512 -139.40005776 23.12784292 -122.48046875 7.2265625 C-87.87773191 -22.49272357 -37.70084704 -27.59512452 0 0 Z " fill="#AB6CE6" transform="translate(159.54296875,26.4375)"/>
<path d="M0 0 C3.24949914 1.44038083 4.97361873 3.10633846 7 6 C9.74587112 13.30462401 10.7942127 21.09986111 11.6875 28.8125 C11.81342529 29.89635986 11.93935059 30.98021973 12.0690918 32.09692383 C13.65323677 46.80684139 13.36726432 61.32804252 12.25 76.0625 C12.18852783 76.98506592 12.12705566 77.90763184 12.0637207 78.8581543 C11.59548994 84.05430278 10.94869084 87.25284914 7 91 C3.01737304 93.2604099 -0.47815684 93.45984846 -5 93 C-11.51692869 90.10201653 -17.2157282 86.30770816 -23.0625 82.25 C-24.01205566 81.59749268 -24.96161133 80.94498535 -25.93994141 80.27270508 C-30.97261828 76.8082529 -35.98449155 73.31460589 -40.98828125 69.80859375 C-42.95033102 68.43462473 -44.91256854 67.0609238 -46.875 65.6875 C-47.83140381 65.01783203 -48.78780762 64.34816406 -49.77319336 63.65820312 C-56.0783754 59.26840263 -62.46483327 55.06306983 -69.04248047 51.0925293 C-78.6874548 45.2501808 -78.6874548 45.2501808 -79.625 41.5 C-78.74516169 37.98064675 -76.90100762 37.10636726 -74 35 C-72.24866452 33.96757436 -70.46915834 32.98182161 -68.66796875 32.0390625 C-67.63365723 31.49193604 -66.5993457 30.94480957 -65.53369141 30.38110352 C-63.87732666 29.51183228 -63.87732666 29.51183228 -62.1875 28.625 C-51.13877152 22.75560584 -40.28535598 16.61089478 -29.5078125 10.25390625 C-28.61312256 9.72837158 -27.71843262 9.20283691 -26.79663086 8.66137695 C-24.80760975 7.47977166 -22.83038346 6.2782133 -20.86157227 5.06323242 C-19.81799561 4.42877197 -18.77441895 3.79431152 -17.69921875 3.140625 C-16.75908936 2.55958008 -15.81895996 1.97853516 -14.8503418 1.37988281 C-9.93839246 -0.99804761 -5.28089834 -1.17522882 0 0 Z " fill="#4CDFB9" transform="translate(213,42)"/>
<path d="M0 0 C0.33 12.54 0.66 25.08 1 38 C4.96 35.525 4.96 35.525 9 33 C16.24691133 30.23299749 22.84442499 29.97350075 30.125 32.625 C39.8278692 36.9807772 44.05813375 43.17178984 48 53 C50.88244036 64.13277865 49.50173444 78.79145853 44 89 C39.19966858 96.01083826 32.50966926 101.40642898 24 103 C14.75358048 103.81625411 8.09262723 102.47789177 0.4375 97.25 C-0.036875 96.8375 -0.51125 96.425 -1 96 C-1.66 97.65 -2.32 99.3 -3 101 C-8.28 101 -13.56 101 -19 101 C-19 68 -19 35 -19 1 C-10 0 -10 0 0 0 Z " fill="#F9F9FA" transform="translate(498,49)"/>
<path d="M0 0 C-1.36591169 3.54243452 -2.90931484 6.92627929 -4.625 10.3125 C-5.29402344 11.63701172 -5.29402344 11.63701172 -5.9765625 12.98828125 C-6.31429687 13.65214844 -6.65203125 14.31601563 -7 15 C-10.51277867 14.4114392 -13.33957075 13.41887934 -16.5625 11.9375 C-25.50746091 8.62725596 -36.83500869 8.28266609 -46.04296875 10.84765625 C-48.35849995 12.02335626 -50.08120394 13.25641695 -52 15 C-52.65097656 15.5465625 -53.30195313 16.093125 -53.97265625 16.65625 C-61.46739373 23.92014341 -62.11771102 33.78657456 -62.4375 43.75 C-62.30094271 50.06414894 -61.24873487 54.61573311 -58 60 C-57.46375 61.051875 -56.9275 62.10375 -56.375 63.1875 C-52.32765201 67.98041209 -46.28990733 71.95760481 -40 73 C-29.68955591 73.59350615 -20.79637049 73.03013176 -11.82421875 67.70703125 C-10 67 -10 67 -7.9765625 67.0546875 C-5.03334418 68.46231365 -4.20493392 70.46966474 -2.6875 73.3125 C-2.15511719 74.27800781 -1.62273437 75.24351562 -1.07421875 76.23828125 C0 79 0 79 -0.00390625 81.1640625 C-2.77554366 86.27257068 -10.89218114 88.2831817 -16.08984375 90.05078125 C-30.52681507 93.89214436 -45.4252968 93.42515637 -58.84765625 86.5390625 C-61.30554265 85.11283682 -63.65951686 83.61018201 -66 82 C-66.9075 81.38125 -67.815 80.7625 -68.75 80.125 C-75.43051677 73.81562305 -78.85433756 66.54799577 -82 58 C-82.55494141 56.61361328 -82.55494141 56.61361328 -83.12109375 55.19921875 C-84.26004726 51.05342798 -84.34249095 47.21806489 -84.3125 42.9375 C-84.30686035 42.09840088 -84.3012207 41.25930176 -84.29541016 40.39477539 C-84.07266829 28.87284595 -81.79563302 19.43374116 -75 10 C-74.54753906 9.36449219 -74.09507812 8.72898437 -73.62890625 8.07421875 C-66.86117412 -0.57237386 -56.60314147 -6.48998599 -45.90234375 -8.6484375 C-29.24353371 -10.66632835 -14.73598649 -8.20436005 0 0 Z " fill="#F8F8F9" transform="translate(357,60)"/>
<path d="M0 0 C6.27 0 12.54 0 19 0 C19.03738281 3.09503906 19.07476562 6.19007812 19.11328125 9.37890625 C19.15954958 12.3907765 19.21076399 15.40252508 19.26245117 18.41430664 C19.29561661 20.50049387 19.32367443 22.58676902 19.34643555 24.6730957 C19.38013569 27.67957879 19.43245968 30.68526225 19.48828125 33.69140625 C19.49467117 34.61772354 19.5010611 35.54404083 19.50764465 36.49842834 C19.63255519 42.05407166 20.32149143 46.0933007 23 51 C26.22775923 52.61387961 29.50040823 52.45886256 33 52 C36.84874717 50.58026984 40.09232271 48.90767729 43 46 C43.32997447 43.94092803 43.32997447 43.94092803 43.31884766 41.55029297 C43.33871735 40.62948944 43.35858704 39.70868591 43.37905884 38.75997925 C43.39061005 37.76410797 43.40216125 36.76823669 43.4140625 35.7421875 C43.43342865 34.72399933 43.4527948 33.70581116 43.4727478 32.6567688 C43.53265355 29.39626511 43.57897299 26.13572633 43.625 22.875 C43.66316965 20.66795313 43.70222077 18.46092131 43.7421875 16.25390625 C43.83836414 10.83605941 43.92235447 5.41814283 44 0 C50.27 0 56.54 0 63 0 C63 22.44 63 44.88 63 68 C57.72 68 52.44 68 47 68 C46.34 65.36 45.68 62.72 45 60 C43.6078125 61.36125 43.6078125 61.36125 42.1875 62.75 C35.71412599 68.25758837 27.80918985 70.7506183 19.34375 70.30859375 C12.05164601 69.34846672 8.17769317 66.74563609 3.4453125 61.1328125 C0.64693543 57.00331552 -0.25027594 53.43391213 -0.22705078 48.4753418 C-0.22689972 47.39459885 -0.22674866 46.3138559 -0.22659302 45.20036316 C-0.21627045 44.0449855 -0.20594788 42.88960785 -0.1953125 41.69921875 C-0.1924826 40.50770706 -0.18965271 39.31619537 -0.18673706 38.08857727 C-0.17555433 34.28811544 -0.1504528 30.48789044 -0.125 26.6875 C-0.11496775 24.10872737 -0.10584233 21.52995103 -0.09765625 18.95117188 C-0.07562116 12.63402352 -0.041104 6.3170519 0 0 Z " fill="#FAF9FA" transform="translate(401,82)"/>
<path d="M0 0 C4.36986663 4.36986663 7.06514227 9.47590929 7.37025452 15.70513916 C7.36803391 16.62003113 7.36581329 17.5349231 7.36352539 18.47753906 C7.36341209 20.03870453 7.36341209 20.03870453 7.36329651 21.63140869 C7.35813522 22.74820007 7.35297394 23.86499146 7.34765625 25.015625 C7.3462413 26.16415955 7.34482635 27.31269409 7.34336853 28.49603271 C7.33777143 32.16404831 7.32521944 35.83200285 7.3125 39.5 C7.30748463 41.98697829 7.30292178 44.47395753 7.29882812 46.9609375 C7.28780295 53.05731519 7.27054027 59.15364724 7.25 65.25 C0.98 65.25 -5.29 65.25 -11.75 65.25 C-11.779729 63.24450073 -11.779729 63.24450073 -11.81005859 61.19848633 C-11.88620817 56.23166267 -11.97491148 51.26512838 -12.06738281 46.29858398 C-12.10563385 44.15020466 -12.14049347 42.00176213 -12.171875 39.85327148 C-12.21760937 36.76262854 -12.27559056 33.67241919 -12.3359375 30.58203125 C-12.34748871 29.62351761 -12.35903992 28.66500397 -12.37094116 27.67744446 C-12.44694205 21.20858859 -12.44694205 21.20858859 -14.75 15.25 C-17.9663096 13.1057936 -19.18024697 12.87718487 -22.9375 12.75 C-23.83855469 12.6984375 -24.73960937 12.646875 -25.66796875 12.59375 C-30.30689771 13.58150674 -33.60539717 15.68780698 -36.75 19.25 C-37.88713053 22.80516135 -37.82384815 26.18929176 -37.75 29.8984375 C-37.7663147 31.41723007 -37.7663147 31.41723007 -37.78295898 32.96670532 C-37.80906653 36.18722678 -37.78030432 39.40456423 -37.75 42.625 C-37.75809355 44.81381849 -37.76977228 47.00262686 -37.78515625 49.19140625 C-37.81497316 54.54504317 -37.79559947 59.89649569 -37.75 65.25 C-44.02 65.25 -50.29 65.25 -56.75 65.25 C-56.75 42.81 -56.75 20.37 -56.75 -2.75 C-51.8 -2.75 -46.85 -2.75 -41.75 -2.75 C-40.76 -0.11 -39.77 2.53 -38.75 5.25 C-37.925 4.5075 -37.1 3.765 -36.25 3 C-25.44039054 -5.99523057 -11.98466535 -7.62660522 0 0 Z " fill="#FAFAFB" transform="translate(767.75,84.75)"/>
<path d="M0 0 C0 6.93 0 13.86 0 21 C6.93 21 13.86 21 21 21 C21 25.95 21 30.9 21 36 C14.07 36 7.14 36 0 36 C0.0511421 40.46726276 0.11418462 44.93109313 0.20751953 49.3972168 C0.2356717 50.91500685 0.2569149 52.43294193 0.27099609 53.95092773 C0.29250723 56.13861021 0.33919228 58.32455965 0.390625 60.51171875 C0.41157227 61.82615967 0.43251953 63.14060059 0.45410156 64.49487305 C1.08143925 68.52290845 2.06005043 70.2146467 5 73 C7.77460546 73.53425914 9.97798346 73.78891952 12.75 73.8125 C13.44738281 73.83763672 14.14476562 73.86277344 14.86328125 73.88867188 C16.57491949 73.94728962 18.2875186 73.97657053 20 74 C20.50636607 75.74816858 21.00484619 77.49862263 21.5 79.25 C21.7784375 80.22453125 22.056875 81.1990625 22.34375 82.203125 C23 85 23 85 23 89 C12.22264327 91.37611015 1.27508886 92.93710635 -9 88 C-13.28377852 85.2062314 -16.08275012 82.05859441 -17.57102966 77.09588623 C-18.00256825 74.98745189 -18.12050414 73.11527555 -18.11352539 70.96582031 C-18.11344986 70.18531311 -18.11337433 69.40480591 -18.11329651 68.60064697 C-18.10813522 67.76821472 -18.10297394 66.93578247 -18.09765625 66.078125 C-18.0962413 65.21813904 -18.09482635 64.35815308 -18.09336853 63.47210693 C-18.08778097 60.73136891 -18.07523075 57.99071324 -18.0625 55.25 C-18.05748339 53.3893241 -18.05292077 51.52864691 -18.04882812 49.66796875 C-18.03781561 45.11194754 -18.02055951 40.55598772 -18 36 C-21.96 36 -25.92 36 -30 36 C-30 31.05 -30 26.1 -30 21 C-26.04 21 -22.08 21 -18 21 C-18 15.06 -18 9.12 -18 3 C-5.625 0 -5.625 0 0 0 Z " fill="#FAFAFA" transform="translate(811,61)"/>
<path d="M0 0 C16 0 16 0 19 1 C19 33.67 19 66.34 19 100 C12.73 100 6.46 100 0 100 C0 67 0 34 0 0 Z " fill="#F8F8FA" transform="translate(367,50)"/>
<path d="M0 0 C5.33222061 0.31038299 8.88288587 2.56222256 13.125 5.5625 C14.46868474 6.48577206 15.81243541 7.4089482 17.15625 8.33203125 C17.81367188 8.78916504 18.47109375 9.24629883 19.1484375 9.71728516 C21.61856156 11.42852353 24.11978767 13.09065678 26.625 14.75 C27.56730469 15.3790625 28.50960937 16.008125 29.48046875 16.65625 C32.39548958 18.60018629 35.31679178 20.53455105 38.23828125 22.46875 C40.13803094 23.72915143 42.03777045 24.98956821 43.9375 26.25 C45.30672607 27.15443848 45.30672607 27.15443848 46.70361328 28.07714844 C48.41450926 29.21352054 50.11837976 30.36056895 51.8137207 31.52001953 C53.54350335 32.69097904 55.31596838 33.79886242 57.1015625 34.8828125 C60.05649726 38.17823357 59.62004612 41.35843181 59.4375 45.625 C59.43169922 46.40101563 59.42589844 47.17703125 59.41992188 47.9765625 C59.29562029 53.70437971 59.29562029 53.70437971 57 56 C51.08405961 55.94694224 47.34588939 52.76990448 42.8125 49.375 C37.28406684 45.30467177 31.67858627 41.48110727 25.86645508 37.82519531 C20.98585403 34.71750658 16.21456466 31.45123214 11.4375 28.1875 C10.45458984 27.52041016 9.47167969 26.85332031 8.45898438 26.16601562 C7.52248047 25.52728516 6.58597656 24.88855469 5.62109375 24.23046875 C4.7798999 23.65707764 3.93870605 23.08368652 3.07202148 22.49291992 C1 21 1 21 -1 19 C-1.24291992 17.13647461 -1.24291992 17.13647461 -1.23046875 14.90234375 C-1.22853516 14.10119141 -1.22660156 13.30003906 -1.22460938 12.47460938 C-1.21236328 11.63736328 -1.20011719 10.80011719 -1.1875 9.9375 C-1.18685547 9.09638672 -1.18621094 8.25527344 -1.18554688 7.38867188 C-1.14023184 1.14023184 -1.14023184 1.14023184 0 0 Z " fill="#05A0E4" transform="translate(123,98)"/>
<path d="M0 0 C6.27 0 12.54 0 19 0 C19 22.44 19 44.88 19 68 C12.73 68 6.46 68 0 68 C0 45.56 0 23.12 0 0 Z " fill="#F9F9FA" transform="translate(677,82)"/>
<path d="M0 0 C4.07830886 2.84533176 6.12891663 6.19924989 7.6875 10.875 C8.30864294 19.36734777 8.6839185 27.57647741 3.6875 34.875 C0.21927749 38.23812486 -3.25672177 39.04602074 -8 39.1875 C-9.21236328 39.24357422 -9.21236328 39.24357422 -10.44921875 39.30078125 C-14.51342961 38.69641702 -17.74447895 36.84707973 -21.3125 34.875 C-21.53609275 30.71273496 -21.69875784 26.55369784 -21.80688477 22.38720703 C-21.8519723 20.97252509 -21.91326961 19.55825869 -21.99145508 18.14501953 C-22.6212289 6.46333258 -22.6212289 6.46333258 -19.43383789 2.5949707 C-13.03946167 -1.85751252 -7.30170679 -2.47982495 0 0 Z " fill="#0C0C2C" transform="translate(519.3125,97.125)"/>
<path d="M0 0 C3.22359407 1.5043439 5.72339849 3.26935717 8 6 C8.92402251 10.44529748 8.56862505 14.04552224 6.25 17.9375 C2.88448377 21.02255654 1.15945644 21.89459487 -3.4375 22.3125 C-7.29333597 21.97426877 -9.00854728 21.40978135 -12 19 C-14.12738138 16.28575479 -14.92909561 14.4760723 -15.4375 11.0625 C-14.8806713 7.16469912 -13.43417323 5.06010349 -11 2 C-7.29422423 -0.47051718 -4.2980393 -0.55512836 0 0 Z " fill="#F6F6F7" transform="translate(689,50)"/>
<path d="M0 0 C0.66 0 1.32 0 2 0 C3.46560818 10.93971819 3.09470423 21.98954106 3 33 C2.67 33 2.34 33 2 33 C1.95101562 31.74445313 1.90203125 30.48890625 1.8515625 29.1953125 C1.42317506 17.44566591 1.42317506 17.44566591 -0.6953125 5.91015625 C-1.05173864 3.67563853 -0.67960781 2.13932881 0 0 Z " fill="#57BD9B" transform="translate(223,73)"/>
<path d="M0 0 C0.66 0.33 1.32 0.66 2 1 C-3.28 6.28 -8.56 11.56 -14 17 C-14 12.95607032 -12.51908749 11.99868382 -9.8125 9.0625 C-9.03519531 8.20785156 -8.25789063 7.35320312 -7.45703125 6.47265625 C-5.09786332 4.09848566 -2.65532732 2.0327639 0 0 Z " fill="#5B28CB" transform="translate(33,65)"/>
<path d="M0 0 C0 0.99 0 1.98 0 3 C-0.66 3.66 -1.32 4.32 -2 5 C-2.37173016 7.6182767 -2.37173016 7.6182767 -2.4140625 10.6640625 C-2.45273437 11.78554687 -2.49140625 12.90703125 -2.53125 14.0625 C-2.5621875 15.238125 -2.593125 16.41375 -2.625 17.625 C-2.66367187 18.80835937 -2.70234375 19.99171875 -2.7421875 21.2109375 C-2.83668845 24.14046691 -2.92224558 27.06998597 -3 30 C-3.33 30 -3.66 30 -4 30 C-4.11586755 25.56271849 -4.18714058 21.12582409 -4.25 16.6875 C-4.28351563 15.42486328 -4.31703125 14.16222656 -4.3515625 12.86132812 C-4.36445313 11.65283203 -4.37734375 10.44433594 -4.390625 9.19921875 C-4.41157227 8.08377686 -4.43251953 6.96833496 -4.45410156 5.8190918 C-4 3 -4 3 -1.97558594 1.11254883 C-0.9976709 0.56183716 -0.9976709 0.56183716 0 0 Z " fill="#181737" transform="translate(502,99)"/>
<path d="M0 0 C0.66 0.33 1.32 0.66 2 1 C-1.96 4.96 -5.92 8.92 -10 13 C-10 8.41771462 -7.08388033 6.1816619 -4 3 C-1.625 1.0625 -1.625 1.0625 0 0 Z " fill="#100D40" transform="translate(82,68)"/>
<path d="M0 0 C0 0.99 0 1.98 0 3 C-2 4.6875 -2 4.6875 -4 6 C-4.66 5.67 -5.32 5.34 -6 5 C-4.02 3.35 -2.04 1.7 0 0 Z M-8 6 C-7.34 6.33 -6.68 6.66 -6 7 C-6.99 7 -7.98 7 -9 7 C-8.67 6.67 -8.34 6.34 -8 6 Z " fill="#8E4ECD" transform="translate(47,26)"/>
</svg>
